<svg id="Layer_2" data-name="Layer 2" xmlns="http://www.w3.org/2000/svg" xmlns:xlink="http://www.w3.org/1999/xlink" viewBox="0 0 241.53 235.21"><defs><style>.cls-1{fill:url(#linear-gradient);}</style><linearGradient id="linear-gradient" x1="680.57" y1="463.04" x2="1005.33" y2="642.28" gradientUnits="userSpaceOnUse"><stop offset="0" stop-color="#41f99d"/><stop offset="0.1" stop-color="#39f797"/><stop offset="0.24" stop-color="#25f088"/><stop offset="0.41" stop-color="#03e66f"/><stop offset="0.43" stop-color="#00e56d"/><stop offset="0.49" stop-color="#15e779"/><stop offset="0.62" stop-color="#4bed98"/><stop offset="0.81" stop-color="#a1f5c9"/><stop offset="1" stop-color="#fff"/></linearGradient></defs><path class="cls-1" d="M886.63,599.4a81.85,81.85,0,0,1-13.39,12.1l-47.37-47.33-47.61,47.15a82.8,82.8,0,0,1-34.07-67.14c0-45.63,36.57-82.62,81.68-82.62a81.56,81.56,0,0,1,72.5,44.53l47.9,46.65c.24-3.13.37-6.31.37-9.51A120.77,120.77,0,1,0,786.22,657.34L825.87,618l38.66,39.64a121.17,121.17,0,0,0,70.69-63.11L825.51,484.87v53.77Z" transform="translate(-705.11 -422.47)"/></svg>